<svg xmlns="http://www.w3.org/2000/svg" viewBox="0 0 672 852" width="672" height="852">
  <rect width="672" height="852" fill="#000000" rx="50" ry="50"/>
  <rect x="40" y="40" width="592" height="592" fill="#ffffff"/>
  <g transform="translate(72, 72)">
    <rect x="32" y="32" width="16" height="16" fill="#000000"/>
    <rect x="48" y="32" width="16" height="16" fill="#000000"/>
    <rect x="64" y="32" width="16" height="16" fill="#000000"/>
    <rect x="80" y="32" width="16" height="16" fill="#000000"/>
    <rect x="96" y="32" width="16" height="16" fill="#000000"/>
    <rect x="112" y="32" width="16" height="16" fill="#000000"/>
    <rect x="128" y="32" width="16" height="16" fill="#000000"/>
    <rect x="160" y="32" width="16" height="16" fill="#000000"/>
    <rect x="192" y="32" width="16" height="16" fill="#000000"/>
    <rect x="208" y="32" width="16" height="16" fill="#000000"/>
    <rect x="224" y="32" width="16" height="16" fill="#000000"/>
    <rect x="240" y="32" width="16" height="16" fill="#000000"/>
    <rect x="256" y="32" width="16" height="16" fill="#000000"/>
    <rect x="272" y="32" width="16" height="16" fill="#000000"/>
    <rect x="320" y="32" width="16" height="16" fill="#000000"/>
    <rect x="352" y="32" width="16" height="16" fill="#000000"/>
    <rect x="384" y="32" width="16" height="16" fill="#000000"/>
    <rect x="400" y="32" width="16" height="16" fill="#000000"/>
    <rect x="416" y="32" width="16" height="16" fill="#000000"/>
    <rect x="432" y="32" width="16" height="16" fill="#000000"/>
    <rect x="448" y="32" width="16" height="16" fill="#000000"/>
    <rect x="464" y="32" width="16" height="16" fill="#000000"/>
    <rect x="480" y="32" width="16" height="16" fill="#000000"/>
    <rect x="32" y="48" width="16" height="16" fill="#000000"/>
    <rect x="128" y="48" width="16" height="16" fill="#000000"/>
    <rect x="160" y="48" width="16" height="16" fill="#000000"/>
    <rect x="208" y="48" width="16" height="16" fill="#000000"/>
    <rect x="224" y="48" width="16" height="16" fill="#000000"/>
    <rect x="240" y="48" width="16" height="16" fill="#000000"/>
    <rect x="288" y="48" width="16" height="16" fill="#000000"/>
    <rect x="304" y="48" width="16" height="16" fill="#000000"/>
    <rect x="320" y="48" width="16" height="16" fill="#000000"/>
    <rect x="336" y="48" width="16" height="16" fill="#000000"/>
    <rect x="384" y="48" width="16" height="16" fill="#000000"/>
    <rect x="480" y="48" width="16" height="16" fill="#000000"/>
    <rect x="32" y="64" width="16" height="16" fill="#000000"/>
    <rect x="64" y="64" width="16" height="16" fill="#000000"/>
    <rect x="80" y="64" width="16" height="16" fill="#000000"/>
    <rect x="96" y="64" width="16" height="16" fill="#000000"/>
    <rect x="128" y="64" width="16" height="16" fill="#000000"/>
    <rect x="160" y="64" width="16" height="16" fill="#000000"/>
    <rect x="176" y="64" width="16" height="16" fill="#000000"/>
    <rect x="192" y="64" width="16" height="16" fill="#000000"/>
    <rect x="208" y="64" width="16" height="16" fill="#000000"/>
    <rect x="256" y="64" width="16" height="16" fill="#000000"/>
    <rect x="272" y="64" width="16" height="16" fill="#000000"/>
    <rect x="320" y="64" width="16" height="16" fill="#000000"/>
    <rect x="336" y="64" width="16" height="16" fill="#000000"/>
    <rect x="352" y="64" width="16" height="16" fill="#000000"/>
    <rect x="384" y="64" width="16" height="16" fill="#000000"/>
    <rect x="416" y="64" width="16" height="16" fill="#000000"/>
    <rect x="432" y="64" width="16" height="16" fill="#000000"/>
    <rect x="448" y="64" width="16" height="16" fill="#000000"/>
    <rect x="480" y="64" width="16" height="16" fill="#000000"/>
    <rect x="32" y="80" width="16" height="16" fill="#000000"/>
    <rect x="64" y="80" width="16" height="16" fill="#000000"/>
    <rect x="80" y="80" width="16" height="16" fill="#000000"/>
    <rect x="96" y="80" width="16" height="16" fill="#000000"/>
    <rect x="128" y="80" width="16" height="16" fill="#000000"/>
    <rect x="192" y="80" width="16" height="16" fill="#000000"/>
    <rect x="224" y="80" width="16" height="16" fill="#000000"/>
    <rect x="256" y="80" width="16" height="16" fill="#000000"/>
    <rect x="304" y="80" width="16" height="16" fill="#000000"/>
    <rect x="320" y="80" width="16" height="16" fill="#000000"/>
    <rect x="336" y="80" width="16" height="16" fill="#000000"/>
    <rect x="352" y="80" width="16" height="16" fill="#000000"/>
    <rect x="384" y="80" width="16" height="16" fill="#000000"/>
    <rect x="416" y="80" width="16" height="16" fill="#000000"/>
    <rect x="432" y="80" width="16" height="16" fill="#000000"/>
    <rect x="448" y="80" width="16" height="16" fill="#000000"/>
    <rect x="480" y="80" width="16" height="16" fill="#000000"/>
    <rect x="32" y="96" width="16" height="16" fill="#000000"/>
    <rect x="64" y="96" width="16" height="16" fill="#000000"/>
    <rect x="80" y="96" width="16" height="16" fill="#000000"/>
    <rect x="96" y="96" width="16" height="16" fill="#000000"/>
    <rect x="128" y="96" width="16" height="16" fill="#000000"/>
    <rect x="192" y="96" width="16" height="16" fill="#000000"/>
    <rect x="240" y="96" width="16" height="16" fill="#000000"/>
    <rect x="272" y="96" width="16" height="16" fill="#000000"/>
    <rect x="288" y="96" width="16" height="16" fill="#000000"/>
    <rect x="336" y="96" width="16" height="16" fill="#000000"/>
    <rect x="384" y="96" width="16" height="16" fill="#000000"/>
    <rect x="416" y="96" width="16" height="16" fill="#000000"/>
    <rect x="432" y="96" width="16" height="16" fill="#000000"/>
    <rect x="448" y="96" width="16" height="16" fill="#000000"/>
    <rect x="480" y="96" width="16" height="16" fill="#000000"/>
    <rect x="32" y="112" width="16" height="16" fill="#000000"/>
    <rect x="128" y="112" width="16" height="16" fill="#000000"/>
    <rect x="160" y="112" width="16" height="16" fill="#000000"/>
    <rect x="192" y="112" width="16" height="16" fill="#000000"/>
    <rect x="208" y="112" width="16" height="16" fill="#000000"/>
    <rect x="224" y="112" width="16" height="16" fill="#000000"/>
    <rect x="256" y="112" width="16" height="16" fill="#000000"/>
    <rect x="288" y="112" width="16" height="16" fill="#000000"/>
    <rect x="320" y="112" width="16" height="16" fill="#000000"/>
    <rect x="384" y="112" width="16" height="16" fill="#000000"/>
    <rect x="480" y="112" width="16" height="16" fill="#000000"/>
    <rect x="32" y="128" width="16" height="16" fill="#000000"/>
    <rect x="48" y="128" width="16" height="16" fill="#000000"/>
    <rect x="64" y="128" width="16" height="16" fill="#000000"/>
    <rect x="80" y="128" width="16" height="16" fill="#000000"/>
    <rect x="96" y="128" width="16" height="16" fill="#000000"/>
    <rect x="112" y="128" width="16" height="16" fill="#000000"/>
    <rect x="128" y="128" width="16" height="16" fill="#000000"/>
    <rect x="160" y="128" width="16" height="16" fill="#000000"/>
    <rect x="192" y="128" width="16" height="16" fill="#000000"/>
    <rect x="224" y="128" width="16" height="16" fill="#000000"/>
    <rect x="256" y="128" width="16" height="16" fill="#000000"/>
    <rect x="288" y="128" width="16" height="16" fill="#000000"/>
    <rect x="320" y="128" width="16" height="16" fill="#000000"/>
    <rect x="352" y="128" width="16" height="16" fill="#000000"/>
    <rect x="384" y="128" width="16" height="16" fill="#000000"/>
    <rect x="400" y="128" width="16" height="16" fill="#000000"/>
    <rect x="416" y="128" width="16" height="16" fill="#000000"/>
    <rect x="432" y="128" width="16" height="16" fill="#000000"/>
    <rect x="448" y="128" width="16" height="16" fill="#000000"/>
    <rect x="464" y="128" width="16" height="16" fill="#000000"/>
    <rect x="480" y="128" width="16" height="16" fill="#000000"/>
    <rect x="160" y="144" width="16" height="16" fill="#000000"/>
    <rect x="192" y="144" width="16" height="16" fill="#000000"/>
    <rect x="256" y="144" width="16" height="16" fill="#000000"/>
    <rect x="272" y="144" width="16" height="16" fill="#000000"/>
    <rect x="336" y="144" width="16" height="16" fill="#000000"/>
    <rect x="352" y="144" width="16" height="16" fill="#000000"/>
    <rect x="64" y="160" width="16" height="16" fill="#000000"/>
    <rect x="80" y="160" width="16" height="16" fill="#000000"/>
    <rect x="96" y="160" width="16" height="16" fill="#000000"/>
    <rect x="128" y="160" width="16" height="16" fill="#000000"/>
    <rect x="160" y="160" width="16" height="16" fill="#000000"/>
    <rect x="176" y="160" width="16" height="16" fill="#000000"/>
    <rect x="256" y="160" width="16" height="16" fill="#000000"/>
    <rect x="320" y="160" width="16" height="16" fill="#000000"/>
    <rect x="336" y="160" width="16" height="16" fill="#000000"/>
    <rect x="368" y="160" width="16" height="16" fill="#000000"/>
    <rect x="384" y="160" width="16" height="16" fill="#000000"/>
    <rect x="400" y="160" width="16" height="16" fill="#000000"/>
    <rect x="448" y="160" width="16" height="16" fill="#000000"/>
    <rect x="464" y="160" width="16" height="16" fill="#000000"/>
    <rect x="480" y="160" width="16" height="16" fill="#000000"/>
    <rect x="64" y="176" width="16" height="16" fill="#000000"/>
    <rect x="96" y="176" width="16" height="16" fill="#000000"/>
    <rect x="192" y="176" width="16" height="16" fill="#000000"/>
    <rect x="256" y="176" width="16" height="16" fill="#000000"/>
    <rect x="288" y="176" width="16" height="16" fill="#000000"/>
    <rect x="304" y="176" width="16" height="16" fill="#000000"/>
    <rect x="384" y="176" width="16" height="16" fill="#000000"/>
    <rect x="416" y="176" width="16" height="16" fill="#000000"/>
    <rect x="480" y="176" width="16" height="16" fill="#000000"/>
    <rect x="48" y="192" width="16" height="16" fill="#000000"/>
    <rect x="64" y="192" width="16" height="16" fill="#000000"/>
    <rect x="80" y="192" width="16" height="16" fill="#000000"/>
    <rect x="96" y="192" width="16" height="16" fill="#000000"/>
    <rect x="128" y="192" width="16" height="16" fill="#000000"/>
    <rect x="160" y="192" width="16" height="16" fill="#000000"/>
    <rect x="192" y="192" width="16" height="16" fill="#000000"/>
    <rect x="208" y="192" width="16" height="16" fill="#000000"/>
    <rect x="224" y="192" width="16" height="16" fill="#000000"/>
    <rect x="240" y="192" width="16" height="16" fill="#000000"/>
    <rect x="256" y="192" width="16" height="16" fill="#000000"/>
    <rect x="304" y="192" width="16" height="16" fill="#000000"/>
    <rect x="320" y="192" width="16" height="16" fill="#000000"/>
    <rect x="384" y="192" width="16" height="16" fill="#000000"/>
    <rect x="432" y="192" width="16" height="16" fill="#000000"/>
    <rect x="448" y="192" width="16" height="16" fill="#000000"/>
    <rect x="32" y="208" width="16" height="16" fill="#000000"/>
    <rect x="96" y="208" width="16" height="16" fill="#000000"/>
    <rect x="112" y="208" width="16" height="16" fill="#000000"/>
    <rect x="144" y="208" width="16" height="16" fill="#000000"/>
    <rect x="160" y="208" width="16" height="16" fill="#000000"/>
    <rect x="176" y="208" width="16" height="16" fill="#000000"/>
    <rect x="192" y="208" width="16" height="16" fill="#000000"/>
    <rect x="208" y="208" width="16" height="16" fill="#000000"/>
    <rect x="224" y="208" width="16" height="16" fill="#000000"/>
    <rect x="256" y="208" width="16" height="16" fill="#000000"/>
    <rect x="304" y="208" width="16" height="16" fill="#000000"/>
    <rect x="384" y="208" width="16" height="16" fill="#000000"/>
    <rect x="464" y="208" width="16" height="16" fill="#000000"/>
    <rect x="32" y="224" width="16" height="16" fill="#000000"/>
    <rect x="48" y="224" width="16" height="16" fill="#000000"/>
    <rect x="64" y="224" width="16" height="16" fill="#000000"/>
    <rect x="96" y="224" width="16" height="16" fill="#000000"/>
    <rect x="112" y="224" width="16" height="16" fill="#000000"/>
    <rect x="128" y="224" width="16" height="16" fill="#000000"/>
    <rect x="160" y="224" width="16" height="16" fill="#000000"/>
    <rect x="176" y="224" width="16" height="16" fill="#000000"/>
    <rect x="288" y="224" width="16" height="16" fill="#000000"/>
    <rect x="320" y="224" width="16" height="16" fill="#000000"/>
    <rect x="368" y="224" width="16" height="16" fill="#000000"/>
    <rect x="432" y="224" width="16" height="16" fill="#000000"/>
    <rect x="448" y="224" width="16" height="16" fill="#000000"/>
    <rect x="464" y="224" width="16" height="16" fill="#000000"/>
    <rect x="480" y="224" width="16" height="16" fill="#000000"/>
    <rect x="80" y="240" width="16" height="16" fill="#000000"/>
    <rect x="160" y="240" width="16" height="16" fill="#000000"/>
    <rect x="176" y="240" width="16" height="16" fill="#000000"/>
    <rect x="192" y="240" width="16" height="16" fill="#000000"/>
    <rect x="208" y="240" width="16" height="16" fill="#000000"/>
    <rect x="224" y="240" width="16" height="16" fill="#000000"/>
    <rect x="240" y="240" width="16" height="16" fill="#000000"/>
    <rect x="256" y="240" width="16" height="16" fill="#000000"/>
    <rect x="304" y="240" width="16" height="16" fill="#000000"/>
    <rect x="320" y="240" width="16" height="16" fill="#000000"/>
    <rect x="336" y="240" width="16" height="16" fill="#000000"/>
    <rect x="368" y="240" width="16" height="16" fill="#000000"/>
    <rect x="384" y="240" width="16" height="16" fill="#000000"/>
    <rect x="416" y="240" width="16" height="16" fill="#000000"/>
    <rect x="432" y="240" width="16" height="16" fill="#000000"/>
    <rect x="480" y="240" width="16" height="16" fill="#000000"/>
    <rect x="48" y="256" width="16" height="16" fill="#000000"/>
    <rect x="80" y="256" width="16" height="16" fill="#000000"/>
    <rect x="112" y="256" width="16" height="16" fill="#000000"/>
    <rect x="128" y="256" width="16" height="16" fill="#000000"/>
    <rect x="144" y="256" width="16" height="16" fill="#000000"/>
    <rect x="176" y="256" width="16" height="16" fill="#000000"/>
    <rect x="192" y="256" width="16" height="16" fill="#000000"/>
    <rect x="208" y="256" width="16" height="16" fill="#000000"/>
    <rect x="224" y="256" width="16" height="16" fill="#000000"/>
    <rect x="240" y="256" width="16" height="16" fill="#000000"/>
    <rect x="272" y="256" width="16" height="16" fill="#000000"/>
    <rect x="288" y="256" width="16" height="16" fill="#000000"/>
    <rect x="304" y="256" width="16" height="16" fill="#000000"/>
    <rect x="368" y="256" width="16" height="16" fill="#000000"/>
    <rect x="464" y="256" width="16" height="16" fill="#000000"/>
    <rect x="48" y="272" width="16" height="16" fill="#000000"/>
    <rect x="64" y="272" width="16" height="16" fill="#000000"/>
    <rect x="80" y="272" width="16" height="16" fill="#000000"/>
    <rect x="144" y="272" width="16" height="16" fill="#000000"/>
    <rect x="160" y="272" width="16" height="16" fill="#000000"/>
    <rect x="176" y="272" width="16" height="16" fill="#000000"/>
    <rect x="208" y="272" width="16" height="16" fill="#000000"/>
    <rect x="304" y="272" width="16" height="16" fill="#000000"/>
    <rect x="384" y="272" width="16" height="16" fill="#000000"/>
    <rect x="432" y="272" width="16" height="16" fill="#000000"/>
    <rect x="464" y="272" width="16" height="16" fill="#000000"/>
    <rect x="480" y="272" width="16" height="16" fill="#000000"/>
    <rect x="64" y="288" width="16" height="16" fill="#000000"/>
    <rect x="80" y="288" width="16" height="16" fill="#000000"/>
    <rect x="128" y="288" width="16" height="16" fill="#000000"/>
    <rect x="176" y="288" width="16" height="16" fill="#000000"/>
    <rect x="208" y="288" width="16" height="16" fill="#000000"/>
    <rect x="240" y="288" width="16" height="16" fill="#000000"/>
    <rect x="256" y="288" width="16" height="16" fill="#000000"/>
    <rect x="304" y="288" width="16" height="16" fill="#000000"/>
    <rect x="320" y="288" width="16" height="16" fill="#000000"/>
    <rect x="352" y="288" width="16" height="16" fill="#000000"/>
    <rect x="368" y="288" width="16" height="16" fill="#000000"/>
    <rect x="400" y="288" width="16" height="16" fill="#000000"/>
    <rect x="432" y="288" width="16" height="16" fill="#000000"/>
    <rect x="448" y="288" width="16" height="16" fill="#000000"/>
    <rect x="480" y="288" width="16" height="16" fill="#000000"/>
    <rect x="32" y="304" width="16" height="16" fill="#000000"/>
    <rect x="48" y="304" width="16" height="16" fill="#000000"/>
    <rect x="64" y="304" width="16" height="16" fill="#000000"/>
    <rect x="112" y="304" width="16" height="16" fill="#000000"/>
    <rect x="144" y="304" width="16" height="16" fill="#000000"/>
    <rect x="208" y="304" width="16" height="16" fill="#000000"/>
    <rect x="224" y="304" width="16" height="16" fill="#000000"/>
    <rect x="240" y="304" width="16" height="16" fill="#000000"/>
    <rect x="304" y="304" width="16" height="16" fill="#000000"/>
    <rect x="320" y="304" width="16" height="16" fill="#000000"/>
    <rect x="336" y="304" width="16" height="16" fill="#000000"/>
    <rect x="384" y="304" width="16" height="16" fill="#000000"/>
    <rect x="416" y="304" width="16" height="16" fill="#000000"/>
    <rect x="464" y="304" width="16" height="16" fill="#000000"/>
    <rect x="480" y="304" width="16" height="16" fill="#000000"/>
    <rect x="32" y="320" width="16" height="16" fill="#000000"/>
    <rect x="64" y="320" width="16" height="16" fill="#000000"/>
    <rect x="80" y="320" width="16" height="16" fill="#000000"/>
    <rect x="112" y="320" width="16" height="16" fill="#000000"/>
    <rect x="128" y="320" width="16" height="16" fill="#000000"/>
    <rect x="144" y="320" width="16" height="16" fill="#000000"/>
    <rect x="160" y="320" width="16" height="16" fill="#000000"/>
    <rect x="176" y="320" width="16" height="16" fill="#000000"/>
    <rect x="192" y="320" width="16" height="16" fill="#000000"/>
    <rect x="208" y="320" width="16" height="16" fill="#000000"/>
    <rect x="224" y="320" width="16" height="16" fill="#000000"/>
    <rect x="240" y="320" width="16" height="16" fill="#000000"/>
    <rect x="256" y="320" width="16" height="16" fill="#000000"/>
    <rect x="288" y="320" width="16" height="16" fill="#000000"/>
    <rect x="304" y="320" width="16" height="16" fill="#000000"/>
    <rect x="320" y="320" width="16" height="16" fill="#000000"/>
    <rect x="384" y="320" width="16" height="16" fill="#000000"/>
    <rect x="400" y="320" width="16" height="16" fill="#000000"/>
    <rect x="416" y="320" width="16" height="16" fill="#000000"/>
    <rect x="32" y="336" width="16" height="16" fill="#000000"/>
    <rect x="64" y="336" width="16" height="16" fill="#000000"/>
    <rect x="112" y="336" width="16" height="16" fill="#000000"/>
    <rect x="144" y="336" width="16" height="16" fill="#000000"/>
    <rect x="160" y="336" width="16" height="16" fill="#000000"/>
    <rect x="192" y="336" width="16" height="16" fill="#000000"/>
    <rect x="208" y="336" width="16" height="16" fill="#000000"/>
    <rect x="240" y="336" width="16" height="16" fill="#000000"/>
    <rect x="320" y="336" width="16" height="16" fill="#000000"/>
    <rect x="384" y="336" width="16" height="16" fill="#000000"/>
    <rect x="416" y="336" width="16" height="16" fill="#000000"/>
    <rect x="464" y="336" width="16" height="16" fill="#000000"/>
    <rect x="480" y="336" width="16" height="16" fill="#000000"/>
    <rect x="32" y="352" width="16" height="16" fill="#000000"/>
    <rect x="64" y="352" width="16" height="16" fill="#000000"/>
    <rect x="96" y="352" width="16" height="16" fill="#000000"/>
    <rect x="128" y="352" width="16" height="16" fill="#000000"/>
    <rect x="144" y="352" width="16" height="16" fill="#000000"/>
    <rect x="176" y="352" width="16" height="16" fill="#000000"/>
    <rect x="192" y="352" width="16" height="16" fill="#000000"/>
    <rect x="224" y="352" width="16" height="16" fill="#000000"/>
    <rect x="352" y="352" width="16" height="16" fill="#000000"/>
    <rect x="368" y="352" width="16" height="16" fill="#000000"/>
    <rect x="384" y="352" width="16" height="16" fill="#000000"/>
    <rect x="400" y="352" width="16" height="16" fill="#000000"/>
    <rect x="416" y="352" width="16" height="16" fill="#000000"/>
    <rect x="448" y="352" width="16" height="16" fill="#000000"/>
    <rect x="160" y="368" width="16" height="16" fill="#000000"/>
    <rect x="176" y="368" width="16" height="16" fill="#000000"/>
    <rect x="192" y="368" width="16" height="16" fill="#000000"/>
    <rect x="208" y="368" width="16" height="16" fill="#000000"/>
    <rect x="240" y="368" width="16" height="16" fill="#000000"/>
    <rect x="272" y="368" width="16" height="16" fill="#000000"/>
    <rect x="288" y="368" width="16" height="16" fill="#000000"/>
    <rect x="336" y="368" width="16" height="16" fill="#000000"/>
    <rect x="352" y="368" width="16" height="16" fill="#000000"/>
    <rect x="416" y="368" width="16" height="16" fill="#000000"/>
    <rect x="432" y="368" width="16" height="16" fill="#000000"/>
    <rect x="464" y="368" width="16" height="16" fill="#000000"/>
    <rect x="480" y="368" width="16" height="16" fill="#000000"/>
    <rect x="32" y="384" width="16" height="16" fill="#000000"/>
    <rect x="48" y="384" width="16" height="16" fill="#000000"/>
    <rect x="64" y="384" width="16" height="16" fill="#000000"/>
    <rect x="80" y="384" width="16" height="16" fill="#000000"/>
    <rect x="96" y="384" width="16" height="16" fill="#000000"/>
    <rect x="112" y="384" width="16" height="16" fill="#000000"/>
    <rect x="128" y="384" width="16" height="16" fill="#000000"/>
    <rect x="192" y="384" width="16" height="16" fill="#000000"/>
    <rect x="208" y="384" width="16" height="16" fill="#000000"/>
    <rect x="272" y="384" width="16" height="16" fill="#000000"/>
    <rect x="320" y="384" width="16" height="16" fill="#000000"/>
    <rect x="336" y="384" width="16" height="16" fill="#000000"/>
    <rect x="352" y="384" width="16" height="16" fill="#000000"/>
    <rect x="384" y="384" width="16" height="16" fill="#000000"/>
    <rect x="416" y="384" width="16" height="16" fill="#000000"/>
    <rect x="464" y="384" width="16" height="16" fill="#000000"/>
    <rect x="32" y="400" width="16" height="16" fill="#000000"/>
    <rect x="128" y="400" width="16" height="16" fill="#000000"/>
    <rect x="176" y="400" width="16" height="16" fill="#000000"/>
    <rect x="192" y="400" width="16" height="16" fill="#000000"/>
    <rect x="288" y="400" width="16" height="16" fill="#000000"/>
    <rect x="352" y="400" width="16" height="16" fill="#000000"/>
    <rect x="416" y="400" width="16" height="16" fill="#000000"/>
    <rect x="432" y="400" width="16" height="16" fill="#000000"/>
    <rect x="464" y="400" width="16" height="16" fill="#000000"/>
    <rect x="32" y="416" width="16" height="16" fill="#000000"/>
    <rect x="64" y="416" width="16" height="16" fill="#000000"/>
    <rect x="80" y="416" width="16" height="16" fill="#000000"/>
    <rect x="96" y="416" width="16" height="16" fill="#000000"/>
    <rect x="128" y="416" width="16" height="16" fill="#000000"/>
    <rect x="160" y="416" width="16" height="16" fill="#000000"/>
    <rect x="176" y="416" width="16" height="16" fill="#000000"/>
    <rect x="192" y="416" width="16" height="16" fill="#000000"/>
    <rect x="240" y="416" width="16" height="16" fill="#000000"/>
    <rect x="304" y="416" width="16" height="16" fill="#000000"/>
    <rect x="352" y="416" width="16" height="16" fill="#000000"/>
    <rect x="368" y="416" width="16" height="16" fill="#000000"/>
    <rect x="384" y="416" width="16" height="16" fill="#000000"/>
    <rect x="400" y="416" width="16" height="16" fill="#000000"/>
    <rect x="416" y="416" width="16" height="16" fill="#000000"/>
    <rect x="432" y="416" width="16" height="16" fill="#000000"/>
    <rect x="448" y="416" width="16" height="16" fill="#000000"/>
    <rect x="464" y="416" width="16" height="16" fill="#000000"/>
    <rect x="32" y="432" width="16" height="16" fill="#000000"/>
    <rect x="64" y="432" width="16" height="16" fill="#000000"/>
    <rect x="80" y="432" width="16" height="16" fill="#000000"/>
    <rect x="96" y="432" width="16" height="16" fill="#000000"/>
    <rect x="128" y="432" width="16" height="16" fill="#000000"/>
    <rect x="160" y="432" width="16" height="16" fill="#000000"/>
    <rect x="176" y="432" width="16" height="16" fill="#000000"/>
    <rect x="208" y="432" width="16" height="16" fill="#000000"/>
    <rect x="304" y="432" width="16" height="16" fill="#000000"/>
    <rect x="320" y="432" width="16" height="16" fill="#000000"/>
    <rect x="336" y="432" width="16" height="16" fill="#000000"/>
    <rect x="368" y="432" width="16" height="16" fill="#000000"/>
    <rect x="400" y="432" width="16" height="16" fill="#000000"/>
    <rect x="432" y="432" width="16" height="16" fill="#000000"/>
    <rect x="448" y="432" width="16" height="16" fill="#000000"/>
    <rect x="32" y="448" width="16" height="16" fill="#000000"/>
    <rect x="64" y="448" width="16" height="16" fill="#000000"/>
    <rect x="80" y="448" width="16" height="16" fill="#000000"/>
    <rect x="96" y="448" width="16" height="16" fill="#000000"/>
    <rect x="128" y="448" width="16" height="16" fill="#000000"/>
    <rect x="160" y="448" width="16" height="16" fill="#000000"/>
    <rect x="224" y="448" width="16" height="16" fill="#000000"/>
    <rect x="240" y="448" width="16" height="16" fill="#000000"/>
    <rect x="320" y="448" width="16" height="16" fill="#000000"/>
    <rect x="384" y="448" width="16" height="16" fill="#000000"/>
    <rect x="416" y="448" width="16" height="16" fill="#000000"/>
    <rect x="448" y="448" width="16" height="16" fill="#000000"/>
    <rect x="464" y="448" width="16" height="16" fill="#000000"/>
    <rect x="32" y="464" width="16" height="16" fill="#000000"/>
    <rect x="128" y="464" width="16" height="16" fill="#000000"/>
    <rect x="240" y="464" width="16" height="16" fill="#000000"/>
    <rect x="256" y="464" width="16" height="16" fill="#000000"/>
    <rect x="288" y="464" width="16" height="16" fill="#000000"/>
    <rect x="304" y="464" width="16" height="16" fill="#000000"/>
    <rect x="336" y="464" width="16" height="16" fill="#000000"/>
    <rect x="352" y="464" width="16" height="16" fill="#000000"/>
    <rect x="368" y="464" width="16" height="16" fill="#000000"/>
    <rect x="416" y="464" width="16" height="16" fill="#000000"/>
    <rect x="464" y="464" width="16" height="16" fill="#000000"/>
    <rect x="32" y="480" width="16" height="16" fill="#000000"/>
    <rect x="48" y="480" width="16" height="16" fill="#000000"/>
    <rect x="64" y="480" width="16" height="16" fill="#000000"/>
    <rect x="80" y="480" width="16" height="16" fill="#000000"/>
    <rect x="96" y="480" width="16" height="16" fill="#000000"/>
    <rect x="112" y="480" width="16" height="16" fill="#000000"/>
    <rect x="128" y="480" width="16" height="16" fill="#000000"/>
    <rect x="240" y="480" width="16" height="16" fill="#000000"/>
    <rect x="256" y="480" width="16" height="16" fill="#000000"/>
    <rect x="272" y="480" width="16" height="16" fill="#000000"/>
    <rect x="320" y="480" width="16" height="16" fill="#000000"/>
    <rect x="368" y="480" width="16" height="16" fill="#000000"/>
    <rect x="416" y="480" width="16" height="16" fill="#000000"/>
    <rect x="432" y="480" width="16" height="16" fill="#000000"/>
    <rect x="448" y="480" width="16" height="16" fill="#000000"/>
  </g>
  <text x="336.0" y="702" font-family="Arial, Helvetica, sans-serif" font-size="70" font-weight="bold" fill="#FFFFFF" text-anchor="middle">Prepper Pi</text>
  <text x="336.0" y="787" font-family="Segoe UI Emoji, Apple Color Emoji, Noto Color Emoji, sans-serif" font-size="80" fill="#FFFFFF" text-anchor="middle">&#127957;</text>
</svg>